<?xml version="1.0" encoding="utf-8"?>
<!-- Generator: Adobe Illustrator 16.0.0, SVG Export Plug-In . SVG Version: 6.00 Build 0)  -->
<!DOCTYPE svg PUBLIC "-//W3C//DTD SVG 1.1//EN" "http://www.w3.org/Graphics/SVG/1.1/DTD/svg11.dtd">
<svg version="1.1" id="Layer_1" xmlns="http://www.w3.org/2000/svg" xmlns:xlink="http://www.w3.org/1999/xlink" x="0px" y="0px"
	 width="360px" height="360px" viewBox="0 0 360 360" enable-background="new 0 0 360 360" xml:space="preserve">
<circle fill="#3b444b" stroke="#d7d7d7" stroke-width="5" stroke-miterlimit="10" cx="185.098" cy="182.635" r="138.009"/>
<g>
	<text transform="matrix(1 0 0 1 102.1426 163.6084)" font-family="'ArialRoundedMTBold'" font-size="45.8898" letter-spacing="2" color="#d7d7d7">2m</text>
	<text transform="matrix(1 0 0 1 131.2651 225.3389)" font-family="'ArialRoundedMTBold'" font-size="45.8898" color="#d7d7d7">heatre</text>
	<g>
		<g>
			<polygon points="86.558,172.272 87.746,172.272 87.746,170.687 87.746,162.58 59.947,176.22 87.746,191.881 87.746,182.506 
				87.746,182.355 85.444,182.355 			"/>
			<g>
				<path d="M86.558,172.772c0.396,0,0.792,0,1.188,0c0.272,0,0.5-0.228,0.5-0.5c0-3.231,0-6.461,0-9.692
					c0-0.4-0.419-0.595-0.752-0.432c-9.266,4.546-18.533,9.093-27.799,13.64c-0.34,0.167-0.311,0.688,0,0.863
					c9.266,5.221,18.533,10.44,27.799,15.661c0.329,0.186,0.752-0.048,0.752-0.432c0-3.176,0-6.35,0-9.525
					c0-0.272-0.228-0.5-0.5-0.5c-0.767,0-1.535,0-2.302,0c0.167,0.166,0.333,0.334,0.5,0.5c0.372-3.361,0.743-6.722,1.114-10.083
					c0.071-0.641-0.93-0.634-1,0c-0.372,3.361-0.743,6.722-1.114,10.083c-0.03,0.271,0.25,0.5,0.5,0.5c0.767,0,1.535,0,2.302,0
					c-0.167-0.166-0.333-0.334-0.5-0.5c0,3.176,0,6.35,0,9.525c0.251-0.145,0.501-0.287,0.752-0.432
					c-9.266-5.221-18.533-10.441-27.799-15.661c0,0.288,0,0.576,0,0.863c9.266-4.546,18.533-9.093,27.799-13.64
					c-0.251-0.144-0.501-0.288-0.752-0.432c0,3.231,0,6.461,0,9.692c0.167-0.167,0.333-0.333,0.5-0.5c-0.396,0-0.792,0-1.188,0
					C85.913,171.772,85.913,172.772,86.558,172.772z"/>
			</g>
		</g>
		<g>
			<polygon points="282.452,191.881 310.249,178.241 282.452,162.58 282.452,171.38 282.452,172.272 282.452,182.355 
				282.452,183.549 			"/>
			<g>
				<path d="M282.704,192.312c9.266-4.547,18.531-9.094,27.797-13.64c0.341-0.167,0.312-0.688,0-0.863
					c-9.266-5.22-18.531-10.44-27.797-15.661c-0.328-0.186-0.752,0.048-0.752,0.432c0,9.767,0,19.533,0,29.301c0,0.645,1,0.645,1,0
					c0-9.768,0-19.534,0-29.301c-0.251,0.144-0.502,0.288-0.752,0.432c9.266,5.22,18.531,10.44,27.797,15.661
					c0-0.288,0-0.576,0-0.863c-9.266,4.546-18.531,9.093-27.797,13.64C281.621,191.733,282.128,192.596,282.704,192.312z"/>
			</g>
		</g>
		<polygon points="87.746,172.272 86.558,172.272 85.444,182.355 87.746,182.355 282.452,182.355 282.452,172.272 		"/>
	</g>
	<path d="M127.586,236.825c0,2.478-2.237,4.485-5,4.485l0,0c-2.762,0-4.999-2.008-4.999-4.485v-56.808
		c0-2.477,2.237-4.486,4.999-4.486l0,0c2.763,0,5,2.009,5,4.486V236.825z"/>
</g>
</svg>
